<svg width="38" height="38" viewBox="0 0 38 38" fill="none" xmlns="http://www.w3.org/2000/svg">
<path d="M37.4348 7.81683C36.1127 8.40267 34.6925 8.7985 33.1994 8.97742C34.74 8.05559 35.8926 6.60474 36.4421 4.89559C34.9946 5.75532 33.4105 6.36048 31.7586 6.68475C30.6477 5.49862 29.1762 4.71243 27.5727 4.44825C25.9692 4.18407 24.3234 4.45667 22.8907 5.22374C21.458 5.9908 20.3186 7.20941 19.6495 8.69037C18.9803 10.1713 18.8188 11.8318 19.1901 13.4139C16.2572 13.2667 13.3881 12.5044 10.769 11.1765C8.14983 9.84866 5.83914 7.98492 3.98689 5.70625C3.35356 6.79875 2.98939 8.06542 2.98939 9.41442C2.98869 10.6288 3.28774 11.8246 3.86003 12.8957C4.43232 13.9669 5.26015 14.8801 6.27006 15.5546C5.09883 15.5173 3.95344 15.2008 2.92923 14.6315V14.7265C2.92911 16.4298 3.51828 18.0806 4.59677 19.3989C5.67525 20.7172 7.17663 21.6218 8.84614 21.9592C7.75963 22.2532 6.62051 22.2965 5.51481 22.0858C5.98585 23.5514 6.90339 24.833 8.13897 25.7511C9.37456 26.6693 10.8663 27.1781 12.4055 27.2063C9.79271 29.2574 6.56596 30.37 3.24431 30.3651C2.65591 30.3652 2.06801 30.3309 1.48364 30.2622C4.85531 32.43 8.78018 33.5806 12.7886 33.5761C26.3578 33.5761 33.7757 22.3376 33.7757 12.5906C33.7757 12.2739 33.7678 11.9541 33.7536 11.6374C35.1964 10.594 36.4419 9.30184 37.4316 7.82159L37.4348 7.81683V7.81683Z" fill="#C2BFBF" fill-opacity="0.97"/>
</svg>
