<svg width="28" height="28" viewBox="0 0 28 28" fill="none" xmlns="http://www.w3.org/2000/svg">
<path d="M22.5412 6.489C22.364 6.39735 22.1915 6.29689 22.0243 6.188C21.5386 5.86684 21.0932 5.48846 20.6978 5.061C19.7073 3.92817 19.3375 2.779 19.2021 1.97517H19.2068C19.0936 1.30667 19.1403 0.875 19.1485 0.875H14.6393V18.3085C14.6393 18.5418 14.6393 18.774 14.63 19.0027C14.63 19.0307 14.6265 19.0563 14.6253 19.0878C14.6253 19.0995 14.6253 19.1135 14.6218 19.1263V19.1368C14.5745 19.7622 14.3741 20.3663 14.0385 20.8961C13.7028 21.4258 13.2421 21.865 12.6968 22.1748C12.128 22.4984 11.4846 22.6681 10.8302 22.6672C8.73015 22.6672 7.02682 20.9545 7.02682 18.8393C7.02682 16.723 8.73015 15.0103 10.8302 15.0103C11.228 15.0103 11.6235 15.0733 12.0015 15.197L12.0073 10.605C10.8593 10.4569 9.69311 10.5484 8.58226 10.8737C7.47141 11.199 6.44007 11.751 5.55332 12.495C4.77615 13.17 4.12273 13.9754 3.62248 14.875C3.43232 15.2028 2.71365 16.5223 2.62732 18.662C2.57248 19.8753 2.93765 21.1353 3.11148 21.6545V21.6662C3.21998 21.9718 3.64465 23.0172 4.33532 23.898C4.89228 24.605 5.55034 25.2261 6.28832 25.7413V25.7297L6.29882 25.7413C8.48048 27.223 10.9013 27.1262 10.9013 27.1262C11.3202 27.1087 12.7237 27.1262 14.3173 26.3713C16.0848 25.5337 17.0905 24.2865 17.0905 24.2865C17.7334 23.5411 18.2448 22.6917 18.6025 21.7747C19.0108 20.7013 19.1461 19.4157 19.1461 18.9023V9.65183C19.201 9.6845 19.9302 10.1663 19.9302 10.1663C19.9302 10.1663 20.9802 10.8395 22.617 11.277C23.7907 11.5885 25.3738 11.655 25.3738 11.655V7.1785C24.8197 7.23917 23.6938 7.06417 22.54 6.49017L22.5412 6.489Z" fill="#C2BFBF" fill-opacity="0.97"/>
</svg>
