<svg width="38" height="38" viewBox="0 0 38 38" fill="none" xmlns="http://www.w3.org/2000/svg">
<path d="M19.0001 14.0533C16.2762 14.0533 14.0534 16.2762 14.0534 19C14.0534 21.7238 16.2762 23.9467 19.0001 23.9467C21.7239 23.9467 23.9467 21.7238 23.9467 19C23.9467 16.2762 21.7239 14.0533 19.0001 14.0533ZM33.8364 19C33.8364 16.9515 33.8549 14.9217 33.7399 12.8769C33.6249 10.5019 33.0831 8.39412 31.3463 6.6574C29.6059 4.91697 27.5018 4.37889 25.1268 4.26385C23.0784 4.14881 21.0485 4.16736 19.0038 4.16736C16.9553 4.16736 14.9254 4.14881 12.8807 4.26385C10.5057 4.37889 8.39791 4.92068 6.66119 6.6574C4.92076 8.39783 4.38267 10.5019 4.26763 12.8769C4.15259 14.9254 4.17115 16.9553 4.17115 19C4.17115 21.0447 4.15259 23.0783 4.26763 25.123C4.38267 27.498 4.92447 29.6058 6.66119 31.3426C8.40162 33.083 10.5057 33.6211 12.8807 33.7361C14.9292 33.8512 16.959 33.8326 19.0038 33.8326C21.0522 33.8326 23.0821 33.8512 25.1268 33.7361C27.5018 33.6211 29.6096 33.0793 31.3463 31.3426C33.0868 29.6021 33.6249 27.498 33.7399 25.123C33.8586 23.0783 33.8364 21.0484 33.8364 19V19ZM19.0001 26.6111C14.7881 26.6111 11.3889 23.2119 11.3889 19C11.3889 14.7881 14.7881 11.3888 19.0001 11.3888C23.212 11.3888 26.6112 14.7881 26.6112 19C26.6112 23.2119 23.212 26.6111 19.0001 26.6111ZM26.9229 12.8547C25.9395 12.8547 25.1454 12.0605 25.1454 11.0771C25.1454 10.0937 25.9395 9.29959 26.9229 9.29959C27.9063 9.29959 28.7004 10.0937 28.7004 11.0771C28.7007 11.3106 28.655 11.5419 28.5657 11.7577C28.4765 11.9735 28.3456 12.1696 28.1805 12.3347C28.0154 12.4998 27.8193 12.6307 27.6035 12.72C27.3877 12.8092 27.1564 12.855 26.9229 12.8547V12.8547Z" fill="#C2BFBF" fill-opacity="0.97"/>
</svg>
